<svg width="1920" height="1080" viewBox="0 0 1920 1080" fill="none" xmlns="http://www.w3.org/2000/svg">
<g clip-path="url(#clip0_125_2)">
<rect width="1920" height="1080" fill="#3D4478" fill-opacity="0.1"/>
<g filter="url(#filter0_d_125_2)">
<path d="M758.402 297.275L566.51 775.275C563.872 781.845 568.71 789 575.79 789H1152.05C1156.14 789 1159.82 786.51 1161.33 782.714L1352.52 304.714C1355.14 298.145 1350.3 291 1343.23 291H767.682C763.597 291 759.924 293.484 758.402 297.275Z" fill="url(#paint0_linear_125_2)"/>
</g>
<path d="M911.528 452L913.461 442.864L909.643 428.442H916.136L917.586 437.176L922.614 428.442H929.639L919.778 442.864L917.828 452H911.528ZM937.68 452.322C935.671 452.322 933.995 451.946 932.652 451.194C931.32 450.442 930.316 449.39 929.639 448.036C928.962 446.672 928.624 445.077 928.624 443.25C928.624 442.026 928.737 440.807 928.962 439.593C929.188 438.379 929.532 437.208 929.994 436.08C930.456 434.941 931.036 433.889 931.734 432.922C932.432 431.955 933.254 431.112 934.199 430.392C935.145 429.662 936.213 429.092 937.406 428.684C938.609 428.276 939.941 428.072 941.402 428.072C944.302 428.072 946.499 428.899 947.992 430.553C949.496 432.208 950.248 434.404 950.248 437.144C950.248 438.368 950.135 439.593 949.91 440.817C949.695 442.031 949.362 443.208 948.911 444.346C948.47 445.474 947.906 446.521 947.219 447.488C946.531 448.455 945.72 449.304 944.786 450.034C943.862 450.754 942.809 451.318 941.627 451.726C940.446 452.124 939.13 452.322 937.68 452.322ZM938.228 447.118C938.754 447.118 939.259 447 939.742 446.763C940.226 446.527 940.677 446.194 941.096 445.764C941.525 445.324 941.907 444.803 942.24 444.201C942.583 443.589 942.879 442.917 943.126 442.187C943.373 441.446 943.561 440.656 943.69 439.818C943.819 438.98 943.883 438.11 943.883 437.208C943.883 435.994 943.625 435.038 943.11 434.34C942.594 433.642 941.848 433.292 940.87 433.292C940.279 433.292 939.726 433.427 939.21 433.695C938.695 433.964 938.217 434.334 937.776 434.807C937.347 435.28 936.96 435.833 936.616 436.467C936.272 437.101 935.977 437.788 935.73 438.529C935.494 439.271 935.311 440.039 935.182 440.833C935.064 441.628 935.005 442.423 935.005 443.218C935.005 444.067 935.123 444.781 935.359 445.361C935.606 445.941 935.966 446.382 936.439 446.683C936.922 446.973 937.519 447.118 938.228 447.118ZM961.108 452.322C959.476 452.322 958.074 452.032 956.903 451.452C955.732 450.861 954.835 450.05 954.212 449.019C953.6 447.988 953.293 446.817 953.293 445.506C953.293 445.173 953.31 444.813 953.342 444.427C953.374 444.029 953.422 443.659 953.487 443.315L956.693 428.442H962.994L959.852 443.154C959.787 443.465 959.733 443.782 959.69 444.104C959.647 444.427 959.626 444.728 959.626 445.007C959.626 445.651 959.803 446.156 960.158 446.521C960.512 446.876 961.028 447.053 961.705 447.053C962.338 447.053 962.875 446.914 963.316 446.634C963.767 446.355 964.148 445.909 964.46 445.297C964.782 444.674 965.051 443.852 965.266 442.832L968.343 428.442H974.644L971.437 443.46C971.04 445.372 970.433 446.989 969.616 448.31C968.8 449.621 967.704 450.62 966.329 451.307C964.954 451.984 963.214 452.322 961.108 452.322ZM981.137 459.428C980.579 459.428 979.999 459.385 979.397 459.299C978.785 459.213 978.221 459.101 977.705 458.961V453.821C978.103 453.917 978.527 454.003 978.978 454.079C979.429 454.165 979.939 454.208 980.509 454.208C981.186 454.208 981.776 454.095 982.281 453.869C982.786 453.644 983.221 453.23 983.586 452.628C983.952 452.038 984.247 451.2 984.473 450.115L989.129 428.442H995.43L990.612 450.904C990.171 452.967 989.575 454.621 988.823 455.867C988.071 457.124 987.078 458.032 985.842 458.59C984.607 459.149 983.039 459.428 981.137 459.428ZM1005.13 452.322C1003.5 452.322 1002.1 452.032 1000.92 451.452C999.753 450.861 998.856 450.05 998.233 449.019C997.621 447.988 997.315 446.817 997.315 445.506C997.315 445.173 997.331 444.813 997.363 444.427C997.396 444.029 997.444 443.659 997.508 443.315L1000.71 428.442H1007.02L1003.87 443.154C1003.81 443.465 1003.75 443.782 1003.71 444.104C1003.67 444.427 1003.65 444.728 1003.65 445.007C1003.65 445.651 1003.82 446.156 1004.18 446.521C1004.53 446.876 1005.05 447.053 1005.73 447.053C1006.36 447.053 1006.9 446.914 1007.34 446.634C1007.79 446.355 1008.17 445.909 1008.48 445.297C1008.8 444.674 1009.07 443.852 1009.29 442.832L1012.36 428.442H1018.67L1015.46 443.46C1015.06 445.372 1014.45 446.989 1013.64 448.31C1012.82 449.621 1011.73 450.62 1010.35 451.307C1008.98 451.984 1007.24 452.322 1005.13 452.322ZM1025.21 452.322C1024.04 452.322 1022.92 452.188 1021.86 451.919C1020.8 451.651 1019.9 451.27 1019.13 450.775V445.136C1019.99 445.662 1021 446.129 1022.16 446.538C1023.33 446.946 1024.41 447.15 1025.4 447.15C1025.8 447.15 1026.15 447.107 1026.45 447.021C1026.75 446.935 1027 446.812 1027.21 446.65C1027.41 446.489 1027.56 446.291 1027.66 446.054C1027.76 445.807 1027.82 445.533 1027.82 445.232C1027.82 444.835 1027.7 444.464 1027.46 444.121C1027.23 443.777 1026.9 443.438 1026.5 443.105C1026.1 442.762 1025.66 442.391 1025.17 441.994C1024.46 441.403 1023.82 440.785 1023.27 440.141C1022.74 439.496 1022.32 438.792 1022.02 438.03C1021.73 437.256 1021.58 436.392 1021.58 435.436C1021.58 434.372 1021.78 433.395 1022.18 432.503C1022.58 431.611 1023.14 430.838 1023.87 430.183C1024.61 429.517 1025.49 429.006 1026.51 428.652C1027.54 428.287 1028.68 428.104 1029.93 428.104C1031.2 428.104 1032.42 428.254 1033.6 428.555C1034.79 428.856 1035.88 429.28 1036.86 429.828L1034.68 434.614C1033.93 434.238 1033.14 433.91 1032.31 433.631C1031.5 433.341 1030.72 433.196 1029.99 433.196C1029.54 433.196 1029.18 433.255 1028.9 433.373C1028.62 433.48 1028.4 433.625 1028.25 433.808C1028.1 433.98 1027.99 434.168 1027.93 434.372C1027.88 434.576 1027.85 434.775 1027.85 434.968C1027.85 435.301 1027.92 435.624 1028.06 435.935C1028.21 436.236 1028.47 436.574 1028.85 436.95C1029.22 437.315 1029.76 437.756 1030.44 438.271C1031.31 438.916 1032.02 439.571 1032.57 440.237C1033.13 440.903 1033.54 441.607 1033.8 442.348C1034.05 443.079 1034.18 443.884 1034.18 444.765C1034.18 445.936 1033.98 446.989 1033.59 447.923C1033.19 448.858 1032.61 449.653 1031.85 450.308C1031.08 450.963 1030.14 451.463 1029.03 451.807C1027.92 452.15 1026.65 452.322 1025.21 452.322ZM1040.32 452L1044.14 433.647H1039.03L1040.14 428.442H1056.71L1055.56 433.647H1050.44L1046.62 452H1040.32Z" fill="white"/>
<path d="M729.532 648L734.511 624.442H740.747C743.454 624.442 745.527 624.979 746.966 626.054C748.406 627.128 749.125 628.745 749.125 630.904C749.125 632.343 748.889 633.546 748.417 634.513C747.944 635.469 747.358 636.237 746.66 636.817C745.962 637.397 745.269 637.838 744.582 638.139L748.835 648H741.971L738.829 639.428H737.653L735.832 648H729.532ZM738.668 634.642H739.49C739.909 634.642 740.317 634.583 740.714 634.465C741.112 634.336 741.466 634.143 741.778 633.885C742.1 633.616 742.353 633.272 742.535 632.854C742.729 632.424 742.825 631.908 742.825 631.307C742.825 630.737 742.664 630.254 742.342 629.856C742.02 629.459 741.456 629.26 740.65 629.26H739.796L738.668 634.642ZM750.995 648L755.974 624.442H769.96L768.913 629.55H761.227L760.469 633.256H767.624L766.463 638.364H759.309L758.391 642.812H766.077L764.981 648H750.995ZM769.557 648L774.536 624.442H788.426L787.346 629.55H779.757L778.822 634.046H785.848L784.736 639.186H777.678L775.857 648H769.557ZM788.345 648L793.324 624.442H799.56C802.267 624.442 804.34 624.979 805.78 626.054C807.219 627.128 807.939 628.745 807.939 630.904C807.939 632.343 807.703 633.546 807.23 634.513C806.757 635.469 806.172 636.237 805.474 636.817C804.775 637.397 804.083 637.838 803.395 638.139L807.649 648H800.785L797.643 639.428H796.466L794.646 648H788.345ZM797.481 634.642H798.303C798.722 634.642 799.13 634.583 799.528 634.465C799.925 634.336 800.28 634.143 800.591 633.885C800.914 633.616 801.166 633.272 801.349 632.854C801.542 632.424 801.639 631.908 801.639 631.307C801.639 630.737 801.478 630.254 801.155 629.856C800.833 629.459 800.269 629.26 799.463 629.26H798.609L797.481 634.642ZM809.808 648L814.787 624.442H828.773L827.726 629.55H820.04L819.283 633.256H826.437L825.277 638.364H818.123L817.204 642.812H824.89L823.794 648H809.808ZM834.606 648.322C833.436 648.322 832.318 648.188 831.255 647.919C830.202 647.651 829.294 647.27 828.532 646.775V641.136C829.391 641.662 830.401 642.129 831.561 642.538C832.732 642.946 833.812 643.15 834.8 643.15C835.197 643.15 835.546 643.107 835.847 643.021C836.148 642.935 836.4 642.812 836.604 642.65C836.809 642.489 836.959 642.291 837.056 642.054C837.163 641.807 837.217 641.533 837.217 641.232C837.217 640.835 837.099 640.464 836.862 640.121C836.626 639.777 836.304 639.438 835.896 639.105C835.498 638.762 835.058 638.391 834.574 637.994C833.854 637.403 833.221 636.785 832.673 636.141C832.136 635.496 831.717 634.792 831.416 634.03C831.126 633.256 830.981 632.392 830.981 631.436C830.981 630.372 831.18 629.395 831.577 628.503C831.975 627.611 832.539 626.838 833.269 626.183C834.01 625.517 834.891 625.006 835.912 624.652C836.943 624.287 838.082 624.104 839.328 624.104C840.595 624.104 841.82 624.254 843.001 624.555C844.194 624.856 845.279 625.28 846.256 625.828L844.081 630.614C843.329 630.238 842.54 629.91 841.712 629.631C840.896 629.341 840.123 629.196 839.392 629.196C838.941 629.196 838.576 629.255 838.296 629.373C838.017 629.48 837.802 629.625 837.652 629.808C837.501 629.98 837.394 630.168 837.33 630.372C837.276 630.576 837.249 630.775 837.249 630.968C837.249 631.301 837.319 631.624 837.458 631.935C837.609 632.236 837.872 632.574 838.248 632.95C838.624 633.315 839.156 633.756 839.843 634.271C840.713 634.916 841.422 635.571 841.97 636.237C842.529 636.903 842.937 637.607 843.195 638.348C843.453 639.079 843.582 639.884 843.582 640.765C843.582 641.936 843.383 642.989 842.985 643.923C842.588 644.858 842.008 645.653 841.245 646.308C840.482 646.963 839.542 647.463 838.425 647.807C837.319 648.15 836.046 648.322 834.606 648.322ZM846.45 648L851.429 624.442H857.729L855.924 633.176H861.532L863.336 624.442H869.653L864.658 648H858.357L860.372 638.396H854.796L852.75 648H846.45ZM881.851 648L885.669 629.647H880.562L881.673 624.442H898.238L897.094 629.647H891.97L888.151 648H881.851ZM906.987 648.322C904.979 648.322 903.303 647.946 901.96 647.194C900.628 646.442 899.624 645.39 898.947 644.036C898.27 642.672 897.932 641.077 897.932 639.25C897.932 638.026 898.044 636.807 898.27 635.593C898.496 634.379 898.839 633.208 899.301 632.08C899.763 630.941 900.343 629.889 901.042 628.922C901.74 627.955 902.562 627.112 903.507 626.392C904.452 625.662 905.521 625.092 906.713 624.684C907.917 624.276 909.249 624.072 910.709 624.072C913.61 624.072 915.807 624.899 917.3 626.553C918.804 628.208 919.556 630.404 919.556 633.144C919.556 634.368 919.443 635.593 919.217 636.817C919.002 638.031 918.669 639.208 918.218 640.346C917.778 641.474 917.214 642.521 916.526 643.488C915.839 644.455 915.028 645.304 914.093 646.034C913.169 646.754 912.117 647.318 910.935 647.726C909.753 648.124 908.438 648.322 906.987 648.322ZM907.535 643.118C908.062 643.118 908.566 643 909.05 642.763C909.533 642.527 909.984 642.194 910.403 641.764C910.833 641.324 911.214 640.803 911.547 640.201C911.891 639.589 912.187 638.917 912.434 638.187C912.681 637.446 912.869 636.656 912.998 635.818C913.126 634.98 913.191 634.11 913.191 633.208C913.191 631.994 912.933 631.038 912.417 630.34C911.902 629.642 911.155 629.292 910.178 629.292C909.587 629.292 909.034 629.427 908.518 629.695C908.002 629.964 907.524 630.334 907.084 630.807C906.654 631.28 906.268 631.833 905.924 632.467C905.58 633.101 905.285 633.788 905.038 634.529C904.801 635.271 904.619 636.039 904.49 636.833C904.372 637.628 904.312 638.423 904.312 639.218C904.312 640.067 904.431 640.781 904.667 641.361C904.914 641.941 905.274 642.382 905.747 642.683C906.23 642.973 906.826 643.118 907.535 643.118ZM929.691 648L934.67 624.442H940.68C942.764 624.442 944.435 624.754 945.691 625.377C946.959 626 947.877 626.849 948.447 627.923C949.027 628.986 949.317 630.179 949.317 631.5C949.317 632.907 949.064 634.153 948.56 635.238C948.065 636.312 947.356 637.22 946.433 637.961C945.52 638.692 944.429 639.245 943.162 639.621C941.905 639.997 940.514 640.185 938.988 640.185H937.603L935.991 648H929.691ZM938.73 635.029H939.746C940.412 635.029 940.986 634.884 941.47 634.594C941.964 634.304 942.345 633.906 942.614 633.401C942.882 632.896 943.017 632.327 943.017 631.693C943.017 631.156 942.845 630.673 942.501 630.243C942.168 629.803 941.615 629.583 940.841 629.583H939.891L938.73 635.029ZM950.251 648L955.23 624.442H961.531L957.647 642.86H965.333L964.238 648H950.251ZM965.172 648L977.161 624.442H985.266L987.248 648H981.108L980.947 643.585H973.729L971.714 648H965.172ZM976.033 638.558H980.754L980.512 631.79C980.501 631.264 980.491 630.743 980.48 630.227C980.469 629.711 980.469 629.223 980.48 628.761H980.383C980.222 629.255 980.045 629.738 979.852 630.211C979.669 630.684 979.465 631.167 979.239 631.661L976.033 638.558ZM993.951 648L995.884 638.864L992.065 624.442H998.559L1000.01 633.176L1005.04 624.442H1012.06L1002.2 638.864L1000.25 648H993.951ZM1015.99 648L1027.98 624.442H1036.09L1038.07 648H1031.93L1031.77 643.585H1024.55L1022.54 648H1015.99ZM1026.85 638.558H1031.58L1031.33 631.79C1031.32 631.264 1031.31 630.743 1031.3 630.227C1031.29 629.711 1031.29 629.223 1031.3 628.761H1031.2C1031.04 629.255 1030.87 629.738 1030.67 630.211C1030.49 630.684 1030.29 631.167 1030.06 631.661L1026.85 638.558ZM1050.77 648.322C1048.1 648.322 1045.96 647.538 1044.34 645.97C1042.73 644.391 1041.92 642.043 1041.92 638.928C1041.92 637.414 1042.1 635.937 1042.45 634.497C1042.82 633.047 1043.36 631.693 1044.08 630.437C1044.81 629.18 1045.72 628.073 1046.82 627.117C1047.91 626.161 1049.2 625.415 1050.69 624.877C1052.17 624.34 1053.85 624.072 1055.73 624.072C1057.09 624.072 1058.4 624.217 1059.64 624.507C1060.89 624.797 1061.99 625.227 1062.95 625.796L1060.58 630.775C1059.9 630.377 1059.15 630.039 1058.31 629.76C1057.48 629.47 1056.59 629.325 1055.65 629.325C1054.27 629.325 1053.11 629.642 1052.17 630.275C1051.23 630.909 1050.48 631.72 1049.91 632.708C1049.34 633.686 1048.93 634.723 1048.67 635.818C1048.42 636.903 1048.3 637.908 1048.3 638.832C1048.3 639.82 1048.43 640.631 1048.69 641.265C1048.95 641.888 1049.32 642.35 1049.82 642.65C1050.32 642.94 1050.94 643.085 1051.67 643.085C1052.1 643.085 1052.45 643.069 1052.73 643.037C1053.02 642.994 1053.38 642.935 1053.81 642.86L1054.63 639.122H1050.94L1052.02 634.207H1061.85L1059.16 647.017C1058.03 647.382 1056.79 647.694 1055.44 647.952C1054.09 648.199 1052.53 648.322 1050.77 648.322ZM1061.34 648L1073.32 624.442H1081.43L1083.41 648H1077.27L1077.11 643.585H1069.89L1067.88 648H1061.34ZM1072.2 638.558H1076.92L1076.68 631.79C1076.67 631.264 1076.65 630.743 1076.64 630.227C1076.63 629.711 1076.63 629.223 1076.64 628.761H1076.55C1076.39 629.255 1076.21 629.738 1076.02 630.211C1075.83 630.684 1075.63 631.167 1075.4 631.661L1072.2 638.558ZM1086.12 648L1091.1 624.442H1097.4L1092.42 648H1086.12ZM1097.78 648L1102.76 624.442H1110.1L1114.7 640.282H1114.85C1114.9 639.809 1114.98 639.208 1115.07 638.477C1115.18 637.747 1115.29 637.005 1115.41 636.253C1115.54 635.501 1115.66 634.852 1115.77 634.304L1117.88 624.442H1123.49L1118.51 648H1111.17L1106.52 631.436H1106.39C1106.38 631.65 1106.35 632.021 1106.29 632.547C1106.24 633.063 1106.17 633.654 1106.08 634.32C1106 634.986 1105.9 635.663 1105.79 636.35C1105.7 637.027 1105.59 637.634 1105.47 638.171L1103.39 648H1097.78Z" fill="white"/>
</g>
<defs>
<filter id="filter0_d_125_2" x="546.78" y="279" width="831.46" height="542" filterUnits="userSpaceOnUse" color-interpolation-filters="sRGB">
<feFlood flood-opacity="0" result="BackgroundImageFix"/>
<feColorMatrix in="SourceAlpha" type="matrix" values="0 0 0 0 0 0 0 0 0 0 0 0 0 0 0 0 0 0 127 0" result="hardAlpha"/>
<feOffset dx="3" dy="10"/>
<feGaussianBlur stdDeviation="11"/>
<feComposite in2="hardAlpha" operator="out"/>
<feColorMatrix type="matrix" values="0 0 0 0 0 0 0 0 0 0 0 0 0 0 0 0 0 0 0.25 0"/>
<feBlend mode="normal" in2="BackgroundImageFix" result="effect1_dropShadow_125_2"/>
<feBlend mode="normal" in="SourceGraphic" in2="effect1_dropShadow_125_2" result="shape"/>
</filter>
<linearGradient id="paint0_linear_125_2" x1="1207.7" y1="540.001" x2="634.993" y2="540.001" gradientUnits="userSpaceOnUse">
<stop stop-color="#4275A6"/>
<stop offset="1" stop-color="#3D4477"/>
</linearGradient>
<clipPath id="clip0_125_2">
<rect width="1920" height="1080" fill="white"/>
</clipPath>
</defs>
</svg>
