<svg width="239" height="56" viewBox="0 0 239 56" fill="none" xmlns="http://www.w3.org/2000/svg">
<path d="M20.736 4.39027L3.86105 46.3903C2.01304 50.9898 5.39953 56 10.3564 56H211.249C214.117 56 216.695 54.2502 217.754 51.5847L234.442 9.5847C236.268 4.98883 232.882 0 227.936 0H27.2314C24.373 0 21.8017 1.73794 20.736 4.39027Z" fill="url(#paint0_linear_19_80)"/>
<path d="M71.8794 40.3223C69.7202 40.3223 68.0337 39.6724 66.8198 38.3726C65.6167 37.0728 65.0151 35.1177 65.0151 32.5073C65.0151 31.1753 65.1064 29.8486 65.2891 28.5273C65.4717 27.1953 65.751 25.917 66.127 24.6924C66.5029 23.4678 66.981 22.3345 67.561 21.2925C68.1411 20.2505 68.8286 19.3374 69.6235 18.5532C70.4185 17.769 71.3262 17.1621 72.3467 16.7324C73.3779 16.292 74.522 16.0718 75.7788 16.0718C77.0356 16.0718 78.0991 16.3027 78.9692 16.7646C79.8501 17.2158 80.5591 17.8281 81.0962 18.6016C81.6333 19.375 82.0254 20.2451 82.2725 21.2119C82.5195 22.168 82.6431 23.1509 82.6431 24.1606C82.6431 25.5786 82.5464 26.9644 82.353 28.3179C82.1597 29.6606 81.8643 30.9336 81.4668 32.1367C81.0693 33.3398 80.5752 34.4409 79.9844 35.4399C79.3936 36.439 78.6953 37.3037 77.8896 38.0342C77.0947 38.7646 76.1978 39.3286 75.1987 39.7261C74.1997 40.1235 73.0933 40.3223 71.8794 40.3223ZM72.5078 35.2466C72.8838 35.2466 73.2383 35.0801 73.5713 34.7471C73.9043 34.4033 74.2104 33.9414 74.4897 33.3613C74.7798 32.7705 75.0376 32.0991 75.2632 31.3472C75.4995 30.5952 75.6982 29.8003 75.8594 28.9624C76.0312 28.1245 76.1602 27.2866 76.2461 26.4487C76.332 25.6001 76.375 24.7944 76.375 24.0317C76.375 23.1187 76.2729 22.415 76.0688 21.9209C75.8647 21.416 75.5264 21.1636 75.0537 21.1636C74.7314 21.1636 74.4146 21.3354 74.103 21.6792C73.7915 22.0229 73.4961 22.4902 73.2168 23.0811C72.9375 23.6719 72.6797 24.354 72.4434 25.1274C72.207 25.8901 72.0029 26.7012 71.8311 27.5605C71.6699 28.4092 71.541 29.2686 71.4443 30.1387C71.3477 31.0088 71.2993 31.8413 71.2993 32.6362C71.2993 33.5278 71.3799 34.1885 71.541 34.6182C71.7129 35.0371 72.0352 35.2466 72.5078 35.2466ZM81.4668 44.2539C81.8535 43.3838 82.2241 42.4707 82.5786 41.5146C82.9331 40.5586 83.2715 39.6187 83.5938 38.6948C83.9268 37.771 84.2275 36.9277 84.4961 36.165H90.1035L90.2324 36.5356C89.8994 37.3091 89.5073 38.1416 89.0562 39.0332C88.6157 39.9248 88.1431 40.8164 87.6382 41.708C87.144 42.5996 86.6338 43.4482 86.1074 44.2539H81.4668ZM101.141 40.3223C98.9819 40.3223 97.2954 39.6724 96.0815 38.3726C94.8784 37.0728 94.2769 35.1177 94.2769 32.5073C94.2769 31.1753 94.3682 29.8486 94.5508 28.5273C94.7334 27.1953 95.0127 25.917 95.3887 24.6924C95.7646 23.4678 96.2427 22.3345 96.8228 21.2925C97.4028 20.2505 98.0903 19.3374 98.8853 18.5532C99.6802 17.769 100.588 17.1621 101.608 16.7324C102.64 16.292 103.784 16.0718 105.041 16.0718C106.297 16.0718 107.361 16.3027 108.231 16.7646C109.112 17.2158 109.821 17.8281 110.358 18.6016C110.895 19.375 111.287 20.2451 111.534 21.2119C111.781 22.168 111.905 23.1509 111.905 24.1606C111.905 25.5786 111.808 26.9644 111.615 28.3179C111.421 29.6606 111.126 30.9336 110.729 32.1367C110.331 33.3398 109.837 34.4409 109.246 35.4399C108.655 36.439 107.957 37.3037 107.151 38.0342C106.356 38.7646 105.459 39.3286 104.46 39.7261C103.461 40.1235 102.355 40.3223 101.141 40.3223ZM101.77 35.2466C102.146 35.2466 102.5 35.0801 102.833 34.7471C103.166 34.4033 103.472 33.9414 103.751 33.3613C104.042 32.7705 104.299 32.0991 104.525 31.3472C104.761 30.5952 104.96 29.8003 105.121 28.9624C105.293 28.1245 105.422 27.2866 105.508 26.4487C105.594 25.6001 105.637 24.7944 105.637 24.0317C105.637 23.1187 105.535 22.415 105.331 21.9209C105.126 21.416 104.788 21.1636 104.315 21.1636C103.993 21.1636 103.676 21.3354 103.365 21.6792C103.053 22.0229 102.758 22.4902 102.479 23.0811C102.199 23.6719 101.941 24.354 101.705 25.1274C101.469 25.8901 101.265 26.7012 101.093 27.5605C100.932 28.4092 100.803 29.2686 100.706 30.1387C100.609 31.0088 100.561 31.8413 100.561 32.6362C100.561 33.5278 100.642 34.1885 100.803 34.6182C100.975 35.0371 101.297 35.2466 101.77 35.2466ZM120.284 40.3223C118.125 40.3223 116.438 39.6724 115.224 38.3726C114.021 37.0728 113.419 35.1177 113.419 32.5073C113.419 31.1753 113.511 29.8486 113.693 28.5273C113.876 27.1953 114.155 25.917 114.531 24.6924C114.907 23.4678 115.385 22.3345 115.965 21.2925C116.545 20.2505 117.233 19.3374 118.028 18.5532C118.823 17.769 119.73 17.1621 120.751 16.7324C121.782 16.292 122.926 16.0718 124.183 16.0718C125.44 16.0718 126.503 16.3027 127.374 16.7646C128.254 17.2158 128.963 17.8281 129.5 18.6016C130.038 19.375 130.43 20.2451 130.677 21.2119C130.924 22.168 131.047 23.1509 131.047 24.1606C131.047 25.5786 130.951 26.9644 130.757 28.3179C130.564 29.6606 130.269 30.9336 129.871 32.1367C129.474 33.3398 128.979 34.4409 128.389 35.4399C127.798 36.439 127.1 37.3037 126.294 38.0342C125.499 38.7646 124.602 39.3286 123.603 39.7261C122.604 40.1235 121.498 40.3223 120.284 40.3223ZM120.912 35.2466C121.288 35.2466 121.643 35.0801 121.976 34.7471C122.309 34.4033 122.615 33.9414 122.894 33.3613C123.184 32.7705 123.442 32.0991 123.667 31.3472C123.904 30.5952 124.103 29.8003 124.264 28.9624C124.436 28.1245 124.564 27.2866 124.65 26.4487C124.736 25.6001 124.779 24.7944 124.779 24.0317C124.779 23.1187 124.677 22.415 124.473 21.9209C124.269 21.416 123.931 21.1636 123.458 21.1636C123.136 21.1636 122.819 21.3354 122.507 21.6792C122.196 22.0229 121.9 22.4902 121.621 23.0811C121.342 23.6719 121.084 24.354 120.848 25.1274C120.611 25.8901 120.407 26.7012 120.235 27.5605C120.074 28.4092 119.945 29.2686 119.849 30.1387C119.752 31.0088 119.704 31.8413 119.704 32.6362C119.704 33.5278 119.784 34.1885 119.945 34.6182C120.117 35.0371 120.439 35.2466 120.912 35.2466ZM134.351 40.4028C133.513 40.4028 132.836 40.2041 132.32 39.8066C131.805 39.4092 131.547 38.7915 131.547 37.9536C131.547 36.6431 131.939 35.6924 132.723 35.1016C133.507 34.5 134.426 34.1992 135.479 34.1992C136.338 34.1992 137.036 34.4033 137.573 34.8115C138.11 35.209 138.379 35.8374 138.379 36.6968C138.379 38.1147 138.014 39.0869 137.283 39.6133C136.553 40.1396 135.575 40.4028 134.351 40.4028ZM149.545 40.3223C147.386 40.3223 145.7 39.6724 144.486 38.3726C143.283 37.0728 142.681 35.1177 142.681 32.5073C142.681 31.1753 142.772 29.8486 142.955 28.5273C143.138 27.1953 143.417 25.917 143.793 24.6924C144.169 23.4678 144.647 22.3345 145.227 21.2925C145.807 20.2505 146.495 19.3374 147.29 18.5532C148.084 17.769 148.992 17.1621 150.013 16.7324C151.044 16.292 152.188 16.0718 153.445 16.0718C154.702 16.0718 155.765 16.3027 156.635 16.7646C157.516 17.2158 158.225 17.8281 158.762 18.6016C159.299 19.375 159.691 20.2451 159.938 21.2119C160.186 22.168 160.309 23.1509 160.309 24.1606C160.309 25.5786 160.212 26.9644 160.019 28.3179C159.826 29.6606 159.53 30.9336 159.133 32.1367C158.735 33.3398 158.241 34.4409 157.65 35.4399C157.06 36.439 156.361 37.3037 155.556 38.0342C154.761 38.7646 153.864 39.3286 152.865 39.7261C151.866 40.1235 150.759 40.3223 149.545 40.3223ZM150.174 35.2466C150.55 35.2466 150.904 35.0801 151.237 34.7471C151.57 34.4033 151.876 33.9414 152.156 33.3613C152.446 32.7705 152.704 32.0991 152.929 31.3472C153.166 30.5952 153.364 29.8003 153.525 28.9624C153.697 28.1245 153.826 27.2866 153.912 26.4487C153.998 25.6001 154.041 24.7944 154.041 24.0317C154.041 23.1187 153.939 22.415 153.735 21.9209C153.531 21.416 153.192 21.1636 152.72 21.1636C152.397 21.1636 152.081 21.3354 151.769 21.6792C151.458 22.0229 151.162 22.4902 150.883 23.0811C150.604 23.6719 150.346 24.354 150.109 25.1274C149.873 25.8901 149.669 26.7012 149.497 27.5605C149.336 28.4092 149.207 29.2686 149.11 30.1387C149.014 31.0088 148.965 31.8413 148.965 32.6362C148.965 33.5278 149.046 34.1885 149.207 34.6182C149.379 35.0371 149.701 35.2466 150.174 35.2466ZM168.688 40.3223C166.529 40.3223 164.842 39.6724 163.628 38.3726C162.425 37.0728 161.824 35.1177 161.824 32.5073C161.824 31.1753 161.915 29.8486 162.098 28.5273C162.28 27.1953 162.56 25.917 162.936 24.6924C163.312 23.4678 163.79 22.3345 164.37 21.2925C164.95 20.2505 165.637 19.3374 166.432 18.5532C167.227 17.769 168.135 17.1621 169.155 16.7324C170.187 16.292 171.331 16.0718 172.587 16.0718C173.844 16.0718 174.908 16.3027 175.778 16.7646C176.659 17.2158 177.368 17.8281 177.905 18.6016C178.442 19.375 178.834 20.2451 179.081 21.2119C179.328 22.168 179.452 23.1509 179.452 24.1606C179.452 25.5786 179.355 26.9644 179.162 28.3179C178.968 29.6606 178.673 30.9336 178.275 32.1367C177.878 33.3398 177.384 34.4409 176.793 35.4399C176.202 36.439 175.504 37.3037 174.698 38.0342C173.903 38.7646 173.006 39.3286 172.007 39.7261C171.008 40.1235 169.902 40.3223 168.688 40.3223ZM169.316 35.2466C169.692 35.2466 170.047 35.0801 170.38 34.7471C170.713 34.4033 171.019 33.9414 171.298 33.3613C171.588 32.7705 171.846 32.0991 172.072 31.3472C172.308 30.5952 172.507 29.8003 172.668 28.9624C172.84 28.1245 172.969 27.2866 173.055 26.4487C173.141 25.6001 173.184 24.7944 173.184 24.0317C173.184 23.1187 173.082 22.415 172.877 21.9209C172.673 21.416 172.335 21.1636 171.862 21.1636C171.54 21.1636 171.223 21.3354 170.912 21.6792C170.6 22.0229 170.305 22.4902 170.025 23.0811C169.746 23.6719 169.488 24.354 169.252 25.1274C169.016 25.8901 168.812 26.7012 168.64 27.5605C168.479 28.4092 168.35 29.2686 168.253 30.1387C168.156 31.0088 168.108 31.8413 168.108 32.6362C168.108 33.5278 168.188 34.1885 168.35 34.6182C168.521 35.0371 168.844 35.2466 169.316 35.2466Z" fill="black"/>
<defs>
<linearGradient id="paint0_linear_19_80" x1="218.5" y1="28.0001" x2="25" y2="28.0005" gradientUnits="userSpaceOnUse">
<stop stop-color="#DBE0E7"/>
<stop offset="1" stop-color="white"/>
</linearGradient>
</defs>
</svg>
