<svg width="3753" height="1855" viewBox="0 0 3753 1855" fill="none" xmlns="http://www.w3.org/2000/svg">
<path d="M876.001 1517.27C690.664 1517.27 301 1396.65 301 935.123C301 473.6 685.935 340.274 876.038 342.166C1066.14 344.057 2691.94 425.376 2888.67 425.376C3085.39 425.376 3396.55 576.667 3396.55 920.312C3396.55 1325.37 3043.78 1428.62 2907.44 1428.62C2771.11 1428.62 1040.6 1430.51 876.038 1430.51C711.471 1430.51 380.446 1335.18 380.446 935.123C380.446 535.062 717.006 428.212 876.038 428.212C1035.07 428.212 2741.13 340.274 2888.67 340.274C3036.21 340.274 3476 436.722 3476 920.312C3476 1403.9 3075.93 1510.89 2907.44 1510.89C2738.96 1510.89 876.038 1517.27 876.038 1517.27" stroke="black"/>
</svg>
